<svg width="192" height="192" viewBox="0 0 192 192" xmlns="http://www.w3.org/2000/svg">
  <!-- Purple background -->
  <rect width="192" height="192" fill="#1a0033" rx="32"/>
  
  <!-- Glow effect -->
  <defs>
    <radialGradient id="glow" cx="50%" cy="50%">
      <stop offset="0%" style="stop-color:#b794f6;stop-opacity:0.6" />
      <stop offset="100%" style="stop-color:#7c3aed;stop-opacity:0" />
    </radialGradient>
  </defs>
  <circle cx="96" cy="96" r="70" fill="url(#glow)"/>
  
  <!-- Ghost body -->
  <ellipse cx="96" cy="100" rx="45" ry="55" fill="#ffffff"/>
  <rect x="51" y="100" width="90" height="40" fill="#ffffff"/>
  
  <!-- Ghost tendrils -->
  <path d="M 51 140 Q 60 155 69 140 Q 78 155 87 140 Q 96 155 105 140 Q 114 155 123 140 Q 132 155 141 140 L 141 100 L 51 100 Z" fill="#ffffff"/>
  
  <!-- Purple tips on tendrils -->
  <circle cx="60" cy="150" r="6" fill="#b794f6" opacity="0.7"/>
  <circle cx="78" cy="150" r="6" fill="#b794f6" opacity="0.7"/>
  <circle cx="96" cy="150" r="6" fill="#b794f6" opacity="0.7"/>
  <circle cx="114" cy="150" r="6" fill="#b794f6" opacity="0.7"/>
  <circle cx="132" cy="150" r="6" fill="#b794f6" opacity="0.7"/>
  
  <!-- Eyes -->
  <circle cx="81" cy="90" r="8" fill="#2d1b4e"/>
  <circle cx="111" cy="90" r="8" fill="#2d1b4e"/>
  
  <!-- Mouth -->
  <path d="M 86 105 Q 96 112 106 105" stroke="#2d1b4e" stroke-width="3" fill="none" stroke-linecap="round"/>
</svg>
